<svg width="75" height="74" viewBox="0 0 75 74" fill="none" xmlns="http://www.w3.org/2000/svg">
<path d="M56 62.4375V11.5625C56 9.00818 53.9293 6.9375 51.375 6.9375L23.625 6.9375C21.0707 6.9375 19 9.00818 19 11.5625V62.4375C19 64.9918 21.0707 67.0625 23.625 67.0625H51.375C53.9293 67.0625 56 64.9918 56 62.4375Z" fill="#4D657C" fill-opacity="0.2" stroke="#4D657C" stroke-width="2" stroke-linecap="round" stroke-linejoin="round"/>
<path d="M37.5 20.8125C39.4157 20.8125 40.9688 19.2595 40.9688 17.3438C40.9688 15.428 39.4157 13.875 37.5 13.875C35.5843 13.875 34.0312 15.428 34.0312 17.3438C34.0312 19.2595 35.5843 20.8125 37.5 20.8125Z" fill="#4D657C"/>
<path d="M27.4651 46.5455L27.6242 44.7955L26.1725 45.8097L25.377 44.4176L26.968 43.6818L25.377 42.946L26.1725 41.554L27.6242 42.5682L27.4651 40.8182H29.056L28.8969 42.5682L30.3486 41.554L31.1441 42.946L29.5532 43.6818L31.1441 44.4176L30.3486 45.8097L28.8969 44.7955L29.056 46.5455H27.4651ZM35.9827 46.5455L36.1418 44.7955L34.6901 45.8097L33.8946 44.4176L35.4855 43.6818L33.8946 42.946L34.6901 41.554L36.1418 42.5682L35.9827 40.8182H37.5736L37.4145 42.5682L38.8662 41.554L39.6617 42.946L38.0708 43.6818L39.6617 44.4176L38.8662 45.8097L37.4145 44.7955L37.5736 46.5455H35.9827ZM44.5003 46.5455L44.6594 44.7955L43.2077 45.8097L42.4122 44.4176L44.0031 43.6818L42.4122 42.946L43.2077 41.554L44.6594 42.5682L44.5003 40.8182H46.0912L45.9321 42.5682L47.3838 41.554L48.1792 42.946L46.5883 43.6818L48.1792 44.4176L47.3838 45.8097L45.9321 44.7955L46.0912 46.5455H44.5003Z" fill="#4D657C"/>
</svg>
